<?xml version="1.0" encoding="utf-8"?>
<!-- Generator: Adobe Illustrator 25.2.0, SVG Export Plug-In . SVG Version: 6.00 Build 0)  -->
<svg version="1.1" id="Layer_1" xmlns="http://www.w3.org/2000/svg" xmlns:xlink="http://www.w3.org/1999/xlink" x="0px" y="0px"
	 viewBox="0 0 1885.06 1350" style="enable-background:new 0 0 1885.06 1350;" xml:space="preserve">
<style type="text/css">
	.st0{fill-rule:evenodd;clip-rule:evenodd;fill:#9E5125;}
	.st1{fill-rule:evenodd;clip-rule:evenodd;fill:#F68634;}
	.st2{fill-rule:evenodd;clip-rule:evenodd;fill:#6C3B1A;}
	.st3{fill-rule:evenodd;clip-rule:evenodd;fill:#FCBF92;}
	.st4{fill:none;stroke:#749CD2;stroke-width:5;stroke-miterlimit:10;stroke-dasharray:12;}
	.st5{fill:#FFFFFF;}
	.st6{fill:none;stroke:#90CD96;stroke-width:5;stroke-miterlimit:10;stroke-dasharray:12;}
	.st7{fill:#F68534;}
	.st8{fill:#F4F4F5;stroke:#FFFFFF;stroke-miterlimit:10;}
	.st9{font-family:'NotoSansCJKkr-Bold-KSCpc-EUC-H';}
	.st10{font-size:16.1158px;}
	.st11{fill:#898989;}
	.st12{fill:#4A494A;}
	.st13{fill:#E5E5E5;}
	.st14{fill:#7D7D7D;}
	.st15{fill:#FEF3A0;}
	.st16{fill:#B0D9A4;}
	.st17{fill:#F59FB4;}
	.st18{fill:#A5A7D3;}
	.st19{fill:#F8F189;}
	.st20{fill:#9E5125;}
	.st21{fill:#F68635;}
	.st22{fill:#6C3B1A;}
	.st23{fill:#644C1F;}
	.st24{fill:#D9A73E;}
	.st25{fill:#896B2B;}
	.st26{fill:#FAD791;}
	.st27{fill:none;stroke:#F68534;stroke-width:5;stroke-miterlimit:10;}
	.st28{fill:none;stroke:#F68534;stroke-width:5;stroke-miterlimit:10;stroke-dasharray:12.1274,12.1274;}
	.st29{fill:none;stroke:#F68534;stroke-width:5;stroke-miterlimit:10;stroke-dasharray:12.1102,12.1102;}
	.st30{fill:none;stroke:#F68534;stroke-width:5;stroke-miterlimit:10;stroke-dasharray:11.9764,11.9764;}
	.st31{fill:none;stroke:#F68534;stroke-width:5;stroke-miterlimit:10;stroke-dasharray:12.038,12.038;}
	.st32{fill:#7B3F66;}
	.st33{fill:#CFB2C1;}
	.st34{fill:#512943;}
	.st35{fill:#C27C9E;}
	.st36{fill:#5E2019;}
	.st37{fill:#8D3324;}
	.st38{fill:#E05243;}
	.st39{fill:#F2B0A9;}
	.st40{fill:url(#SVGID_1_);}
	.st41{fill:#749CD2;}
	.st42{font-size:28.3151px;}
	.st43{fill:#F68634;}
	.st44{fill:#6B3A19;}
	.st45{fill:#FABE91;}
	.st46{fill:#90CD96;}
	.st47{fill:none;stroke:#BAADD5;stroke-width:4;stroke-miterlimit:10;stroke-dasharray:12,12;}
	.st48{fill:#BAADD5;}
	.st49{fill:#ADB1D9;}
	.st50{font-family:'NotoSansCJKkr-Medium-KSCpc-EUC-H';}
	.st51{font-size:17.9573px;}
	.st52{font-size:16.0719px;}
	.st53{fill:#ADB1D9;stroke:#FFFFFF;stroke-width:2;stroke-miterlimit:10;}
	.st54{fill:none;stroke:#BAADD5;stroke-width:4;stroke-miterlimit:10;stroke-dasharray:12;}
</style>
<symbol  id="A" viewBox="-35 -40 70 80">
	<path class="st0" d="M-31.49-25.1L-35-23.44v46.88l3.51,1.66L-17.58,0L-31.49-25.1z"/>
	<path class="st1" d="M-23.31,23.28l-8.18,1.82v-50.2l8.18,1.77L-23.31,23.28L-23.31,23.28z"/>
	<path class="st0" d="M-27.62-26.94l4.31-2.03L-13.1,0l-10.21,28.97l-4.31-2.03C-27.62,26.94-27.62-26.94-27.62-26.94z"/>
	<path class="st1" d="M-13.1,26.24l-10.2,2.73v-57.94l10.2,2.74C-13.1-26.23-13.1,26.24-13.1,26.24z"/>
	<path class="st0" d="M-18.5-31.25l5.4-2.56L20.62,0L-13.1,33.8l-5.4-2.55V-31.25z"/>
	<path class="st1" d="M23.36,21.03L-13.1,33.8v-67.61L23.36-21.2L23.36,21.03L23.36,21.03z"/>
	<path class="st2" d="M18.63-6.31l-6.81,0.42L-6.99-7.4L0-40L18.65-6.31H18.63z"/>
	<path class="st0" d="M0-8.07V-40l-6.98,3.3v29.3L0-8.07z"/>
	<path class="st1" d="M18.63-6.31v-24.87L0-40v31.93l18.65,1.76L18.63-6.31z"/>
	<path class="st3" d="M18.63,6.09L12.19,5.7L-6.99,7.24L0,40L18.65,6.09L18.63,6.09z"/>
	<path class="st0" d="M-6.99,7.24v29.47L0,40V7.84l-6.98-0.6L-6.99,7.24z"/>
	<path class="st1" d="M0,7.84V40l18.65-8.82V6.09L0,7.84z"/>
	<path class="st3" d="M35,4.56L31,4.4L20.62,5.27L25,28.16C25,28.16,35,4.56,35,4.56z"/>
	<path class="st1" d="M25,5.49v22.67l10-4.73V4.56L25,5.49L25,5.49z"/>
	<path class="st2" d="M35-4.75L31-4.6L20.62-5.47L25-28.16L35-4.75L35-4.75z"/>
	<path class="st1" d="M35-4.75v-18.68l-10-4.73V-5.7L35-4.75L35-4.75z"/>
	<path class="st0" d="M20.62,27.07l4.38,1.1V5.5l-4.39-0.22v21.8L20.62,27.07z M20.62-27.06l4.38-1.1V-5.7l-4.39,0.23v-21.59H20.62z
		"/>
</symbol>
<rect x="563.74" y="952.53" class="st4" width="301.94" height="277.18"/>
<rect x="601.89" y="936.95" class="st5" width="225.64" height="30.62"/>
<rect x="1292.85" y="758.27" class="st6" width="301.94" height="479.9"/>
<g>
	<g>
		<rect x="349.85" y="25.66" class="st7" width="232.26" height="40.63"/>
		<rect x="349.85" y="66.29" class="st8" width="232.26" height="161.03"/>
		<g>
			<text transform="matrix(1 0 0 1 442.4678 51.58)" class="st5 st9 st10">Client</text>
		</g>
	</g>
	<g>
		<g>
			<polygon class="st11" points="513.25,198.22 419.09,198.22 420.43,188.84 511.53,188.84 			"/>
			<polyline class="st12" points="420.43,188.84 431.15,185.72 502.56,185.72 511.53,188.84 			"/>
		</g>
		<path class="st11" d="M518.45,87.11H413.51c-5.55,0-10.05,4.5-10.05,10.05v71c0,5.55,4.5,10.05,10.05,10.05h43.17v9.08h18.61
			v-9.08h43.17c5.55,0,10.05-4.5,10.05-10.05v-71C528.5,91.6,524,87.11,518.45,87.11z"/>
		<rect x="410.39" y="94.92" class="st12" width="111.19" height="75.47"/>
	</g>
</g>
<rect x="347.62" y="328.43" class="st7" width="232.26" height="40.63"/>
<rect x="347.62" y="369.07" class="st8" width="232.26" height="161.03"/>
<g>
	<text transform="matrix(1 0 0 1 425.0767 354.3554)" class="st5 st9 st10">Route 53</text>
</g>
<rect x="1327.7" y="1022.38" class="st7" width="232.26" height="40.63"/>
<rect x="1327.7" y="1063.01" class="st8" width="232.26" height="161.03"/>
<g>
	<text transform="matrix(1 0 0 1 1388.5099 1048.3025)" class="st5 st9 st10">Web Server 2</text>
</g>
<rect x="1406.9" y="342.18" class="st7" width="232.26" height="40.63"/>
<rect x="1406.9" y="382.81" class="st8" width="232.26" height="161.03"/>
<g>
	<text transform="matrix(1 0 0 1 1469.2935 368.1016)" class="st5 st9 st10">AWS Amplify</text>
</g>
<rect x="104.61" y="825.82" class="st7" width="232.26" height="40.63"/>
<rect x="104.61" y="866.45" class="st8" width="232.26" height="161.03"/>
<g>
	<text transform="matrix(1 0 0 1 147.7184 851.7388)" class="st5 st9 st10">Internet Gateway</text>
</g>
<g>
	<g>
		<g>
			<polygon class="st13" points="236.05,303.77 193.31,303.77 193.31,374.29 247.01,374.29 247.01,314.73 			"/>
			<polygon class="st14" points="235.55,303.77 235.55,314.22 247.01,314.22 			"/>
		</g>
		<rect x="198.04" y="316.84" class="st5" width="44.23" height="49.53"/>
		<rect x="198.04" y="316.84" class="st15" width="20.83" height="20.83"/>
		<rect x="221.44" y="319.35" class="st16" width="20.83" height="20.83"/>
		<rect x="210.78" y="330.46" class="st17" width="20.83" height="20.83"/>
		<rect x="221.2" y="345.35" class="st18" width="20.83" height="20.83"/>
	</g>
	<g>
		<g>
			<polygon class="st13" points="211.63,315.77 168.89,315.77 168.89,386.29 222.6,386.29 222.6,326.74 			"/>
			<polygon class="st14" points="211.14,315.77 211.14,326.22 222.6,326.22 			"/>
		</g>
		<path class="st19" d="M211.49,364.17H180c-2.1,0-3.81-1.7-3.81-3.81v-16.5c0-2.1,1.7-3.81,3.81-3.81h31.5
			c2.1,0,3.81,1.7,3.81,3.81v16.5C215.3,362.46,213.6,364.17,211.49,364.17z"/>
		<path class="st5" d="M193.11,357.51c-1.09,0.63-2.45-0.16-2.45-1.42l0-3.98l0-3.98c0-1.26,1.36-2.04,2.45-1.41l3.45,2l3.45,2
			c1.09,0.63,1.09,2.2,0,2.83l-3.45,1.99L193.11,357.51z"/>
	</g>
	<g>
		<g>
			<polygon class="st13" points="180,332.19 137.26,332.19 137.26,402.71 190.96,402.71 190.96,343.16 			"/>
			<polygon class="st14" points="179.51,332.19 179.51,342.64 190.96,342.64 			"/>
		</g>
		<rect x="147.06" y="348.16" class="st14" width="34.1" height="2.16"/>
		<rect x="147.06" y="354.49" class="st14" width="34.1" height="2.16"/>
		<rect x="147.06" y="360.04" class="st14" width="34.1" height="2.16"/>
		<rect x="147.06" y="365.6" class="st14" width="34.1" height="2.16"/>
		<rect x="147.06" y="371.15" class="st14" width="34.1" height="2.16"/>
		<rect x="147.06" y="376.71" class="st14" width="34.1" height="2.16"/>
		<rect x="147.06" y="382.26" class="st14" width="34.1" height="2.16"/>
		<rect x="147.06" y="387.82" class="st14" width="34.1" height="2.16"/>
	</g>
</g>
<g>
	<path class="st20" d="M446.48,493.6l18.15,9.08l1.77-1.32l-0.75-101.18l-1.03-1.21l-18.15,9.08V493.6"/>
	<path class="st21" d="M482.79,493.6l-18.15,9.08V398.97l18.15,9.08V493.6"/>
	<path class="st22" d="M457.79,436.72l-6.37,0.93l-29.72-3.35l0.13-0.33l4.82-1.45l0.51,0.29l0.12-0.29l30.32,3.54L457.79,436.72"/>
	<path class="st20" d="M421.7,420.44l5.46-2.73v15.11l-5.46,1.49V420.44"/>
	<path class="st22" d="M507.59,442.94l-30.42,1.63l-5.7-0.39l1.07-0.45l29.65-1.7L507.59,442.94"/>
	<path class="st21" d="M457.79,436.72l-30.63-3.91V417.7l30.63,7.18V436.72"/>
	<path class="st20" d="M502.11,426.56l-30.63,5.26v12.36l30.63-1.84l0.18-0.35l-0.06-15.16L502.11,426.56"/>
	<path class="st21" d="M507.59,442.94l-5.48-0.71v-15.67l5.48,2.01V442.94"/>
</g>
<g>
	<path class="st21" d="M1410.15,1175.62l-11.82,2.7v-76.55l11.82,2.7V1175.62"/>
	<path class="st21" d="M1424.9,1180.13l-14.75,4.19v-88.47l14.75,4.19V1180.13 M1443.82,1184.78l-18.92,6.92v-103.22l18.92,6.92
		V1184.78 M1494.4,1175.85l-50.59,25.29v-122.12l50.59,25.29V1175.85"/>
	<path class="st20" d="M1433.73,1084.06l10.08-5.04v122.12l-10.08-5.04V1084.06 M1417.09,1092.38l7.81-3.9v103.2l-7.81-3.9V1092.38
		 M1403.93,1098.96l6.22-3.11v88.45l-6.22-3.11V1098.96 M1398.33,1101.76l-5.07,2.54v71.57l5.07,2.53V1101.76"/>
</g>
<rect x="1327.7" y="785.18" class="st7" width="232.26" height="40.63"/>
<rect x="1327.7" y="825.82" class="st8" width="232.26" height="161.03"/>
<g>
	<text transform="matrix(1 0 0 1 1388.5099 811.1066)" class="st5 st9 st10">Web Server 1</text>
</g>
<g>
	<path class="st21" d="M1410.15,938.42l-11.82,2.7v-76.55l11.82,2.7V938.42"/>
	<path class="st21" d="M1424.9,942.94l-14.75,4.19v-88.47l14.75,4.19V942.94 M1443.82,947.58l-18.92,6.92V851.28l18.92,6.92V947.58
		 M1494.4,938.65l-50.59,25.29V841.82l50.59,25.29V938.65"/>
	<path class="st20" d="M1433.73,846.86l10.08-5.04v122.12l-10.08-5.04V846.86 M1417.09,855.18l7.81-3.9v103.2l-7.81-3.9V855.18
		 M1403.93,861.76l6.22-3.11v88.45l-6.22-3.11V861.76 M1398.33,864.57l-5.07,2.54v71.57l5.07,2.53V864.57"/>
</g>
<g>
	<rect x="933.01" y="976.59" class="st7" width="232.26" height="40.63"/>
	<rect x="933.01" y="1017.22" class="st8" width="232.26" height="161.03"/>
	<g>
		<text transform="matrix(1 0 0 1 997.7853 1002.5125)" class="st5 st9 st10">Load Blancer</text>
	</g>
	<g>
		
			<use xlink:href="#A"  width="70" height="80" x="-35" y="-40" transform="matrix(1.3705 0 0 1.3705 1049.1438 1097.7384)" style="overflow:visible;"/>
	</g>
</g>
<g>
	<path class="st23" d="M271.56,944.41l-24.32,1.01l-15.76-1.01l26.07-2.5L271.56,944.41"/>
	<path class="st24" d="M257.49,943l14.06,1.41v-28.33l-14.06-7.03l-1.08,1.17v31.58L257.49,943"/>
	<path class="st25" d="M231.48,916.06l26.02-7.04V943l-26.02,1.41V916.06"/>
	<path class="st23" d="M171.4,944.41l24.32,1.01l15.76-1.01l-26-2.78L171.4,944.41"/>
	<path class="st25" d="M185.46,943l-14.06,1.36v-28.41l14.06-7.02l0.65,1.21v31.8L185.46,943"/>
	<path class="st24" d="M211.48,916.06l-26.02-7.04V943l26.02,1.41V916.06"/>
	<g>
		<path class="st26" d="M271.56,959.06l-24.32-1.01l-15.76,1.01l25.96,2.62L271.56,959.06"/>
		<path class="st24" d="M257.49,960.46l14.06-1.41v28.33l-14.06,7.03l-0.74-1.61v-30.9L257.49,960.46"/>
		<path class="st25" d="M231.48,987.4l26.02,7.04v-33.98l-26.02-1.41V987.4"/>
	</g>
	<g>
		<path class="st26" d="M171.4,959.06l24.32-1.01l15.76,1.01l-26.19,2.85L171.4,959.06"/>
		<path class="st25" d="M185.46,960.46l-14.06-1.41v28.33l14.06,7.03l0.85-1.27v-31.24L185.46,960.46"/>
		<path class="st24" d="M211.48,987.4l-26.02,7.04v-33.98l26.02-1.41V987.4"/>
	</g>
	<g>
		<path class="st23" d="M208.78,932.51l12.9-2.26l25.75,3.65l2.22,1.28l-12.51,1.37L208.78,932.51"/>
		<path class="st23" d="M234.17,932.51l-12.9-2.26l-26.86,4.17l-1.11,0.75l12.51,1.37L234.17,932.51"/>
		<path class="st26" d="M208.78,970.96l12.9,2.26l25.68-3.59l2.28-1.33l-12.51-1.37L208.78,970.96"/>
		<path class="st26" d="M234.17,970.96l-12.9,2.26l-27.05-3.85l-0.91-1.07l12.51-1.37L234.17,970.96"/>
		<path class="st24" d="M249.65,935.17v-14l-13.19-4.31v-18.33l-14.98-7.49v0l-0.62,0.99l-0.11,118.38l0.74,1.52l14.98-7.49v-17.84
			l13.19-4.31v-14l-13.19,2.32v-37.77L249.65,935.17"/>
		<path class="st25" d="M206.5,898.53v18.33l-13.19,4.31v14l13.19-2.32v37.77l-13.19-2.32v14l13.19,4.31v17.84l14.98,7.49v-120.9
			L206.5,898.53"/>
	</g>
</g>
<rect x="1005.13" y="39.12" class="st7" width="232.26" height="40.63"/>
<rect x="1005.13" y="79.75" class="st8" width="232.26" height="161.03"/>
<g>
	<text transform="matrix(1 0 0 1 1070.8027 65.0439)" class="st5 st9 st10">Cloud Front</text>
</g>
<g>
	<g>
		<polyline class="st27" points="1808.42,592.79 1808.42,598.79 1802.42,598.79 		"/>
		<line class="st28" x1="1790.29" y1="598.79" x2="1020.2" y2="598.79"/>
		<polyline class="st27" points="1014.14,598.79 1008.14,598.79 1008.14,592.79 		"/>
		<line class="st29" x1="1008.14" y1="580.68" x2="1008.14" y2="53.88"/>
		<polyline class="st27" points="1008.14,47.83 1008.14,41.83 1014.14,41.83 		"/>
		<line class="st28" x1="1026.26" y1="41.83" x2="1796.36" y2="41.83"/>
		<polyline class="st27" points="1802.42,41.83 1808.42,41.83 1808.42,47.83 		"/>
		<line class="st29" x1="1808.42" y1="59.94" x2="1808.42" y2="586.73"/>
	</g>
</g>
<g>
	<g>
		<polyline class="st27" points="1693.48,1291.35 1693.48,1297.35 1687.48,1297.35 		"/>
		<line class="st30" x1="1675.51" y1="1297.35" x2="507.81" y2="1297.35"/>
		<polyline class="st27" points="501.82,1297.35 495.82,1297.35 495.82,1291.35 		"/>
		<line class="st31" x1="495.82" y1="1279.32" x2="495.82" y2="683.44"/>
		<polyline class="st27" points="495.82,677.42 495.82,671.42 501.82,671.42 		"/>
		<line class="st30" x1="513.79" y1="671.42" x2="1681.5" y2="671.42"/>
		<polyline class="st27" points="1687.48,671.42 1693.48,671.42 1693.48,677.42 		"/>
		<line class="st31" x1="1693.48" y1="689.46" x2="1693.48" y2="1285.34"/>
	</g>
</g>
<g>
	<rect x="1277.59" y="113.62" class="st7" width="232.26" height="40.63"/>
	<rect x="1277.59" y="154.25" class="st8" width="232.26" height="161.03"/>
	<g>
		<text transform="matrix(1 0 0 1 1358.9166 139.5436)" class="st5 st9 st10">Cognito</text>
	</g>
	<g>
		<path class="st32" d="M1433.28,199l10.21-2.63l0.08,0.11l0.26,61.63l-0.33,0.34l-2.1,0.09l-7.98-1.24l-0.12-0.31V199
			 M1374.25,262.73l0.04,0l26.94,7.83l0.07,0.05l0.12,0.09l-0.04,23.46l-0.08,0.1l-27.05-13.14V262.73"/>
		<path class="st33" d="M1433.28,256.98l-31.94,7.65l-16.03-3.87l-11.06,1.97l27.05,7.88l41.74-11.3l0.44-0.86L1433.28,256.98"/>
		<path class="st34" d="M1428.34,207.54l-0.26-0.3l-26.5-7.7l-0.29,0.11l-0.27-0.14l-41.69,12.02l-0.23,0.28l0.33,0.18l9.53,1.4
			l0.34-0.11l31.94-7.65l16.03,3.87L1428.34,207.54"/>
		<path class="st35" d="M1369.32,271.27l-10.21,2.46l-0.02-0.06l-0.4-61.4l0.42-0.45l10.21,1.47V271.27"/>
		<path class="st32" d="M1383.09,247.46l18.2,2.14l0.14-0.2l0.07-28.47l-0.21-0.23l-18.2,2.14V247.46"/>
		<path class="st35" d="M1419.5,247.46l-18.2,2.14v-28.91l18.2,2.14V247.46 M1428.34,207.54l-27.05-7.88v-23.65l27.05,13.14V207.54"
			/>
		<path class="st32" d="M1401.3,176.01l-50.69,24.47v69.31l8.51,3.94v-61.91l42.19-12.16V176.01"/>
		<path class="st35" d="M1443.48,196.38v62.07l-42.19,12.16v23.65l50.69-24.47v-69.31L1443.48,196.38"/>
	</g>
</g>
<g>
	<path class="st36" d="M1133.07,148.95l25.42-2.71l13.17,2.74l0.05,0.03l-24.29,1.45l-14.38-1.48L1133.07,148.95L1133.07,148.95z"/>
	<path class="st37" d="M1133.05,148.98l25.42-1.99l0.17-0.25l0-31.37l-0.17-0.36l-25.43,6.61V148.98"/>
	<path class="st38" d="M1171.71,149.01l-13.24-2.02l0-31.98l13.24,6.63L1171.71,149.01"/>
	<path class="st39" d="M1133.05,171.56l0.37,0.26l25.06,1.7l12.79-1.7l0.45-0.25l-24.29-1.49L1133.05,171.56"/>
	<path class="st37" d="M1133.05,171.56l25.43,1.89l0.08,0.11l-0.02,31.75l-0.06,0.17l-25.43-6.56V171.56"/>
	<path class="st38" d="M1171.71,171.57l-13.24,1.88l0,32.03l13.24-6.57V171.57"/>
	<g>
		<path class="st36" d="M1100.05,148.93l-25.14-2.15l-13.05,2.17l-0.08,0.06l24.29,1.45l14.12-1.45L1100.05,148.93L1100.05,148.93z"
			/>
		<path class="st37" d="M1061.78,149.01l13.12-1.92l0.39-0.27v-31.44l-0.39-0.37l-13.12,6.63V149.01"/>
		<path class="st38" d="M1100.18,149.01l-25.28-1.92v-32.08l25.28,6.61L1100.18,149.01"/>
	</g>
	<g>
		<path class="st39" d="M1100.18,171.57l-0.58,0.42l-24.7,1.85l-12.7-1.85l-0.42-0.42l24.29-1.49L1100.18,171.57"/>
		<path class="st37" d="M1061.78,171.57l13.12,1.86l0.33,0.41l0.04,31.06l-0.37,0.57l-13.12-6.57L1061.78,171.57"/>
		<path class="st38" d="M1100.18,171.57l-25.28,1.86l0,32.04l25.28-6.56V171.57"/>
	</g>
	<g>
		<path class="st39" d="M1142.99,175.66l-26.24-2.59l-26.5,2.59l0.37,0.32l26,4.13l26-4.13L1142.99,175.66"/>
		<path class="st37" d="M1090.24,175.66l26.37,3.86l0.27,0.36l0.03,45.93l-0.3,0.51l-26.37-13.19V175.66"/>
		<path class="st38" d="M1142.99,175.66l-26.37,3.86v46.8l26.37-13.19L1142.99,175.66"/>
	</g>
	<g>
		<path class="st36" d="M1116.75,147.44l-26.5-2.56l0.07-0.04l26.3-4.08l26.29,4.09l0.08,0.03L1116.75,147.44z"/>
		<path class="st37" d="M1090.24,144.88l26.37-3.84l0.13-0.12l-0.06-46.63l-0.07-0.07l-26.37,13.19V144.88"/>
		<path class="st38" d="M1142.99,144.88l-26.37-3.84V94.21l26.37,13.19V144.88"/>
	</g>
</g>
<g>
	<rect x="1533.55" y="112.57" class="st7" width="232.26" height="40.63"/>
	<rect x="1533.55" y="153.21" class="st8" width="232.26" height="161.03"/>
	<g>
		<text transform="matrix(1 0 0 1 1606.6554 138.4972)" class="st5 st9 st10">S3 Bucket</text>
	</g>
	<g>
		<path class="st37" d="M1607.58,190.34l-7.53,3.76v66.07l7.53,3.74l0.05-0.05v-73.47L1607.58,190.34"/>
		<path class="st38" d="M1647.86,254.33l-40.28,9.59v-73.57l40.28,9.38V254.33"/>
		<path class="st37" d="M1629.68,239.31l17.09,2.18l0.11-0.25l0.1-28.02l-0.2-0.22l-17.09,2.14L1629.68,239.31"/>
		<path class="st37" d="M1646.77,254.43l39.19,9.5l0.06-0.1l0-73.43l-0.06-0.07l-39.19,9.49V254.43"/>
		<path class="st38" d="M1663.86,239.31l-17.09,2.18V213l17.09,2.14V239.31"/>
		<path class="st36" d="M1663.86,203.46l-17.09,3.12l-17.09-3.12l17.07-4.47L1663.86,203.46"/>
		<path class="st39" d="M1663.86,250.97l-17.09-3.14l-17.09,3.14l17.07,4.76L1663.86,250.97"/>
		<path class="st37" d="M1629.68,203.46l17.09-4.23l0.14-0.04v-28.33l-0.14-0.11l-17.09,8.54V203.46"/>
		<path class="st38" d="M1663.86,203.46l-17.09-4.23v-28.48l17.09,8.54V203.46"/>
		<path class="st37" d="M1646.77,283.68l-17.09-8.54v-24.17l17.09,4.23l0.25,0.29l-0.07,27.7L1646.77,283.68"/>
		<path class="st38" d="M1646.77,283.68l17.09-8.54v-24.17l-17.09,4.23V283.68 M1685.95,190.34l7.53,3.76v66.07l-7.53,3.76V190.34"
			/>
	</g>
</g>
<g>
	
		<linearGradient id="SVGID_1_" gradientUnits="userSpaceOnUse" x1="7.2" y1="839.7106" x2="6.7379" y2="839.4534" gradientTransform="matrix(256 0 0 -190.9841 -255 160808.75)">
		<stop  offset="0" style="stop-color:#F8991D"/>
		<stop  offset="1" style="stop-color:#FFC40C"/>
	</linearGradient>
	<path class="st40" d="M1489.63,482.93h33.32l8.53,15.02h-0.24h-67.35l23.73-41.13l9.95-17.22l8.54,14.8L1489.63,482.93z
		 M1502.06,431.82l8.2-14.21l46.4,80.34h-16.43L1502.06,431.82z M1514.82,409.71h16.41l50.95,88.25h-16.43L1514.82,409.71z"/>
</g>
<g>
	<rect x="598.58" y="980.04" class="st7" width="232.26" height="40.63"/>
	<rect x="598.58" y="1020.67" class="st8" width="232.26" height="161.03"/>
	<g>
		<text transform="matrix(1 0 0 1 680.8154 1005.9608)" class="st5 st9 st10">Bastion</text>
	</g>
	<g>
		<path class="st20" d="M738.65,1154.31h-47.88c-12.19,0-22.06-9.88-22.06-22.06v-60.07c0-12.19,9.88-22.06,22.06-22.06h47.88
			c12.19,0,22.06,9.88,22.06,22.06v60.07C760.71,1144.43,750.84,1154.31,738.65,1154.31z"/>
		<path class="st21" d="M738.65,1145.88h-47.88c-12.19,0-22.06-9.88-22.06-22.06v-60.07c0-12.19,9.88-22.06,22.06-22.06h47.88
			c12.19,0,22.06,9.88,22.06,22.06v60.07C760.71,1136,750.84,1145.88,738.65,1145.88z"/>
	</g>
</g>
<text transform="matrix(1 0 0 1 617.4771 962.8395)" class="st41 st9 st42">Public Subnet</text>
<g>
	<rect x="492.59" y="667.74" class="st7" width="232.26" height="40.63"/>
	<rect x="492.59" y="708.37" class="st8" width="232.26" height="161.03"/>
	<g>
		<text transform="matrix(1 0 0 1 589.4552 693.6614)" class="st5 st9 st10">VPC</text>
	</g>
	<g>
		<path class="st43" d="M608.83,792.1v-62.74l52.35,25.98l0.17,36.76h-6.87l0.17-24.3l-30.23-8.66v32.74L608.83,792.1z"/>
		<path class="st20" d="M608.83,729.19v62.86H581v-48.78L608.83,729.19z M556.25,791.99v-36.88l14.97-7.15v44.03h-15.14"/>
		<path class="st43" d="M571.23,747.96v44.03l9.78,0.06v-41.57L571.23,747.96z"/>
		<path class="st20" d="M635.48,770.47v21.68h19.11l0.06-24.36L635.48,770.47z"/>
		<path class="st44" d="M624.42,759.14l30.23,8.66l-19.11,2.68l-11.12-2.4V759.14z"/>
		<path class="st20" d="M556.53,802.99l14.69,2.57v30.73l-14.97-7.6L556.53,802.99z M580.84,806.96v34.08l27.83,13.8V811.1
			L580.84,806.96z"/>
		<path class="st43" d="M660.9,802.99v25.98l-52.24,25.87v-43.74L660.9,802.99z"/>
		<path class="st43" d="M625.14,801.09v2.51l-44.31,3.41v26.82l-9.61,2.46L571.17,805L625.14,801.09z"/>
		<path class="st45" d="M556.53,802.99l56.71-3.07l11.85,1.12l-54.03,4.69L556.53,802.99z M580.84,806.96l52.91-5.31l26.88,1.4
			l-51.96,8.04L580.84,806.96z"/>
	</g>
</g>
<rect x="1331.01" y="742.69" class="st5" width="225.64" height="30.62"/>
<text transform="matrix(1 0 0 1 1339.7744 764.0947)" class="st46 st9 st42">Private Subnet</text>
<g>
	<g>
		<line class="st47" x1="464.63" y1="301.83" x2="464.63" y2="251.34"/>
		<g>
			<polygon class="st48" points="475.6,298.62 464.63,317.61 453.66,298.62 			"/>
		</g>
		<g>
			<polygon class="st48" points="475.6,254.55 464.63,235.55 453.66,254.55 			"/>
		</g>
	</g>
</g>
<g>
	<g>
		<polyline class="st47" points="388.81,449.58 51,449.58 51,959.86 130.44,959.86 		"/>
		<g>
			<polygon class="st48" points="127.23,970.83 146.23,959.86 127.23,948.89 			"/>
		</g>
	</g>
</g>
<text transform="matrix(1 0 0 1 99.1278 422.8677)" class="st49 st50 st51">File Upload &amp; Download</text>
<text transform="matrix(1 0 0 1 785.5799 135.649)" class="st49 st50 st52">Login &amp; Create Account</text>
<g>
	<g>
		<polyline class="st47" points="543.86,450.82 859.65,450.82 859.65,154.25 1026.18,154.25 		"/>
		<g>
			<polygon class="st48" points="1022.97,165.22 1041.97,154.25 1022.97,143.28 			"/>
		</g>
	</g>
</g>
<g>
	<g>
		<polyline class="st47" points="297.58,954.51 410.39,954.51 410.39,1095.85 619.69,1095.85 		"/>
		<g>
			<polygon class="st48" points="616.48,1106.82 635.48,1095.85 616.48,1084.88 			"/>
		</g>
	</g>
</g>
<g>
	<g>
		<path class="st53" d="M870.49,93.12c0,13.52-10.96,12.39-24.48,12.39c-13.52,0-24.48,1.53-24.48-11.99s10.96-36.96,24.48-36.96
			C859.53,56.56,870.49,79.6,870.49,93.12z"/>
		<circle class="st53" cx="846.62" cy="52.66" r="14.09"/>
		<path class="st5" d="M850.35,73.47c0,2.16-1.94,3.91-4.34,3.91s-4.34-1.75-4.34-3.91s1.94-1.67,4.34-1.67
			S850.35,71.31,850.35,73.47z"/>
		<path class="st5" d="M843.1,77.39c0,0,3.28,2.61,5.88,0l1.36,10.31l-4.34,8.61l-4.34-8.92L843.1,77.39z"/>
	</g>
	<g>
		<path class="st53" d="M928.11,93.12c0,13.52-10.96,12.39-24.48,12.39c-13.52,0-24.48,1.53-24.48-11.99s10.96-36.96,24.48-36.96
			C917.16,56.56,928.11,79.6,928.11,93.12z"/>
		<circle class="st53" cx="904.25" cy="52.66" r="14.09"/>
		<path class="st5" d="M907.98,73.47c0,2.16-1.94,3.91-4.34,3.91c-2.4,0-4.34-1.75-4.34-3.91s1.94-1.67,4.34-1.67
			C906.03,71.8,907.98,71.31,907.98,73.47z"/>
		<path class="st5" d="M900.73,77.39c0,0,3.28,2.61,5.88,0l1.36,10.31l-4.34,8.61l-4.34-8.92L900.73,77.39z"/>
	</g>
	<g>
		<path class="st53" d="M899.3,102.37c0,13.52-10.96,12.39-24.48,12.39s-24.48,1.53-24.48-11.99s10.96-36.96,24.48-36.96
			S899.3,88.85,899.3,102.37z"/>
		<circle class="st53" cx="875.43" cy="61.91" r="14.09"/>
		<path class="st5" d="M879.16,82.72c0,2.16-1.94,3.91-4.34,3.91s-4.34-1.75-4.34-3.91s1.94-1.67,4.34-1.67
			S879.16,80.56,879.16,82.72z"/>
		<path class="st5" d="M871.91,86.64c0,0,3.28,2.61,5.88,0l1.36,10.31l-4.34,8.61l-4.34-8.92L871.91,86.64z"/>
	</g>
</g>
<g>
	<g>
		<line class="st47" x1="792.91" y1="1095.85" x2="958.83" y2="1095.85"/>
		<g>
			<polygon class="st48" points="955.62,1106.82 974.61,1095.85 955.62,1084.88 			"/>
		</g>
	</g>
</g>
<g>
	<g>
		<polyline class="st47" points="1129.8,1097.74 1215,1097.74 1215,902.84 1334.82,902.84 		"/>
		<g>
			<polygon class="st48" points="1331.61,913.81 1350.6,902.84 1331.61,891.87 			"/>
		</g>
	</g>
</g>
<g>
	<g>
		<polyline class="st47" points="1215,1104.96 1215,1153.11 1334.82,1153.11 		"/>
		<g>
			<polygon class="st48" points="1331.61,1164.08 1350.6,1153.11 1331.61,1142.14 			"/>
		</g>
	</g>
</g>
<g>
	<g>
		<polyline class="st47" points="1302.57,240.79 1259.9,240.79 1259.9,474.39 1414.44,474.39 		"/>
		<g>
			<polygon class="st48" points="1299.36,229.82 1318.35,240.79 1299.36,251.76 			"/>
		</g>
		<g>
			<polygon class="st48" points="1411.23,485.36 1430.23,474.39 1411.23,463.42 			"/>
		</g>
	</g>
</g>
<g>
	<g>
		<line class="st47" x1="1494.66" y1="240.79" x2="1555.99" y2="240.79"/>
		<g>
			<polygon class="st48" points="1497.87,251.76 1478.87,240.79 1497.87,229.82 			"/>
		</g>
		<g>
			<polygon class="st48" points="1552.78,251.76 1571.77,240.79 1552.78,229.82 			"/>
		</g>
	</g>
</g>
<g>
	<g>
		<polyline class="st47" points="1742.14,240.79 1784.42,240.79 1784.42,474.39 1615.84,474.39 		"/>
		<g>
			<polygon class="st48" points="1745.35,251.76 1726.35,240.79 1745.35,229.82 			"/>
		</g>
		<g>
			<polygon class="st48" points="1619.05,463.42 1600.05,474.39 1619.05,485.36 			"/>
		</g>
	</g>
</g>
<polyline class="st54" points="1116.92,240.79 1116.92,379.68 1259.9,379.68 "/>
<g>
	<g>
		<polyline class="st47" points="1541.11,896.71 1629.68,896.71 1629.68,1153.11 1538.82,1153.11 		"/>
		<g>
			<polygon class="st48" points="1544.32,907.68 1525.32,896.71 1544.32,885.74 			"/>
		</g>
		<g>
			<polygon class="st48" points="1542.03,1142.14 1523.03,1153.11 1542.03,1164.08 			"/>
		</g>
	</g>
</g>
<polyline class="st54" points="1629.68,1041.68 1773.58,1041.68 1773.58,474.39 "/>
<text transform="matrix(1 0 0 1 3.0119 -32.6069)" class="st5 st50 st42">Font = Noto Sans CJK KR</text>
</svg>
