<?xml version="1.0" encoding="utf-8"?>
<!-- Generator: Adobe Illustrator 25.2.0, SVG Export Plug-In . SVG Version: 6.00 Build 0)  -->
<svg version="1.1" id="Layer_1" xmlns="http://www.w3.org/2000/svg" xmlns:xlink="http://www.w3.org/1999/xlink" x="0px" y="0px"
	 viewBox="0 0 209.8 39.1" style="enable-background:new 0 0 209.8 39.1;" xml:space="preserve">
<style type="text/css">
	.st0{fill:#FED136;}
	.st1{fill:#D3AEFF;}
	.st2{fill:#B1ACFF;}
</style>
<path class="st0" d="M-216-67.7c0.1,0.4,0.1,0.7,0.2,0.8c0,0.2,0.1,0.4,0.1,0.6c0,0.8-0.2,1.5-0.5,2.2c-0.3,0.6-0.8,1.1-1.4,1.4
	c-0.5-0.6-1.1-1.2-1.7-1.6c-0.7-0.5-1.5-0.8-2.2-1.1c-0.8-0.3-1.7-0.5-2.5-0.7c-0.8-0.1-1.7-0.2-2.6-0.2c-0.8,0-1.6,0.1-2.3,0.2
	c-0.6,0.1-1.3,0.3-1.9,0.5c-0.5,0.2-0.9,0.5-1.3,0.8c-0.3,0.3-0.5,0.7-0.5,1.1c0.1,0.6,0.5,1.2,1,1.6c0.6,0.6,1.3,1.1,2.1,1.6
	s1.7,1,2.7,1.5s2,1,3,1.4c1.2,0.6,2.2,1.1,3.1,1.6c0.8,0.4,1.5,1,2.2,1.6c0.6,0.6,1,1.2,1.3,2s0.4,1.7,0.3,2.6
	c0,1.2-0.2,2.3-0.6,3.4c-0.4,1-1,2-1.8,2.7c-0.8,0.8-1.7,1.4-2.8,1.8c-1.2,0.5-2.4,0.7-3.6,0.7c-1.4,0-2.8-0.2-4.2-0.6
	c-1.5-0.4-2.9-0.9-4.3-1.7c-1.2-0.6-2.4-1.4-3.3-2.4c-0.8-0.7-1.3-1.8-1.4-2.9c0-0.6,0.2-1.2,0.4-1.8c0.3-0.8,0.8-1.6,1.5-2.3
	c0.1,0.9,0.5,1.8,1.1,2.5c0.9,1.1,1.9,2,3.1,2.7c1.2,0.7,2.6,1.3,4,1.7c1.3,0.3,2.6,0.5,3.9,0.5c1.1,0,2.2-0.1,3.2-0.5
	c0.7-0.3,1.4-0.7,1.9-1.2c0.4-0.4,0.8-0.9,1-1.4c0.2-0.4,0.3-0.7,0.3-1.1c0-0.5-0.3-1-0.6-1.4c-0.5-0.5-1.1-0.9-1.7-1.3
	c-0.7-0.4-1.5-0.8-2.4-1.3s-1.9-0.8-2.9-1.3c-1.5-0.7-2.8-1.3-3.8-1.9c-0.9-0.5-1.8-1.1-2.6-1.8c-0.6-0.5-1.2-1.2-1.5-1.9
	s-0.5-1.5-0.5-2.3c0-1.3,0.4-2.6,1.2-3.7c0.9-1.2,2.1-2.2,3.5-2.7c0.8-0.3,1.6-0.6,2.4-0.7c0.8-0.1,1.7-0.2,2.5-0.2
	c1.6,0,3.1,0.2,4.6,0.6C-219-68.9-217.5-68.4-216-67.7z"/>
<path class="st0" d="M-213.2-57.4c-0.2-0.3-0.3-0.6-0.3-0.9c-0.1-0.4-0.1-0.8-0.1-1.2c0.6,0.1,1.2,0.2,1.8,0.2h1.6
	c0.4-0.7,0.7-1.4,1.1-2.1c0.4-0.7,0.8-1.3,1.2-1.9c0.3-0.5,0.7-1,1.1-1.5c0.2-0.3,0.5-0.6,0.8-0.8c0.3,0,0.6,0.1,0.9,0.1
	c0.4,0.1,0.7,0.2,1.1,0.3c0.4,0.1,0.7,0.3,1,0.4c0.2,0.1,0.4,0.2,0.6,0.4c-0.7,0.9-1.3,1.7-1.8,2.5s-1.1,1.6-1.6,2.6h1.4
	c0.5,0,1,0,1.5-0.1c0.1,0.1,0.2,0.3,0.3,0.4c0.1,0.2,0.1,0.4,0.1,0.5c-1.4,0.5-2.8,0.7-4.2,0.7c-0.6,1.1-1.1,2.3-1.6,3.4
	s-0.9,2.2-1.2,3.2s-0.6,2-0.7,2.9c-0.2,0.8-0.3,1.7-0.3,2.5c0,1,0.4,1.6,1.2,1.7c0.7-0.1,1.4-0.3,2-0.5s1.2-0.6,1.7-1
	c0.1,0.2,0.2,0.3,0.2,0.5c-0.2,0.3-0.4,0.5-0.7,0.7c-0.4,0.3-0.7,0.6-1.1,0.8c-0.4,0.3-0.8,0.5-1.2,0.7c-0.3,0.2-0.6,0.2-0.9,0.3
	c-0.6,0-1.2-0.1-1.8-0.3s-1.1-0.5-1.6-0.9c-0.5-0.3-0.9-0.7-1.2-1.2c-0.3-0.4-0.4-0.8-0.5-1.3c0-0.7,0.1-1.4,0.2-2.1
	c0.1-0.9,0.4-1.8,0.6-2.8s0.6-2.1,1-3.2s0.8-2.2,1.2-3.3L-213.2-57.4z"/>
<path class="st0" d="M-190.6-58.2c0.3,0,0.6,0,0.8,0.1c0.3,0.1,0.6,0.2,0.9,0.3c0.2,0.1,0.4,0.2,0.6,0.4c0.2,0.1,0.3,0.3,0.3,0.4
	c-0.5,1-0.9,2-1.3,3s-0.7,2-1,2.9c-0.3,0.8-0.5,1.7-0.6,2.6c-0.1,0.7-0.2,1.4-0.2,2.1c0,0.5,0.1,1.1,0.2,1.6
	c0.1,0.4,0.4,0.7,0.7,0.9c-0.3,0.2-0.7,0.4-1.1,0.5c-0.4,0.1-0.8,0.2-1.2,0.2c-1.3,0-1.9-0.9-1.9-2.6c0.1-1.9,0.6-3.8,1.4-5.5
	c-0.5,1-1,2-1.6,3c-0.6,0.9-1.2,1.7-1.9,2.5c-0.6,0.7-1.2,1.3-2,1.9c-0.5,0.4-1.1,0.7-1.8,0.8c-0.9,0-1.7-0.5-2.1-1.2
	c-0.6-0.9-0.9-1.9-0.8-3c0-1.4,0.3-2.9,0.9-4.2c0.6-1.5,1.3-2.8,2.2-4.1c0.8-1.2,1.8-2.2,2.9-3.1c0.8-0.8,1.9-1.2,3-1.3
	c0.3,0.1,0.6,0.2,0.8,0.4c0.3,0.2,0.6,0.5,0.9,0.7c0.3,0.3,0.5,0.5,0.7,0.9c0.2,0.2,0.3,0.5,0.3,0.8c-1.1,0.2-2.1,0.6-2.9,1.3
	c-1,0.8-1.9,1.8-2.7,2.8c-0.8,1.1-1.5,2.3-2,3.5c-0.5,1.1-0.8,2.3-0.8,3.5c-0.1,0.4,0.2,0.7,0.5,0.8c0.9-0.3,1.8-1,2.4-1.8
	c1.2-1.5,2.3-3.1,3.3-4.8l0.8-1.4c0.3-0.5,0.6-1.1,0.9-1.6l0.9-1.7C-191.1-57-190.9-57.6-190.6-58.2z"/>
<path class="st0" d="M-187-44.6c0.1-0.7,0.3-1.6,0.6-2.7c0.3-1.1,0.6-2.3,1-3.6s0.8-2.5,1.3-3.8s0.9-2.4,1.3-3.4
	c0.2-0.6,0.5-1.2,0.8-1.7c0.2-0.4,0.5-0.7,0.8-1c0.3,0,0.7,0.1,1,0.2c0.3,0.1,0.7,0.2,1,0.4s0.6,0.3,0.9,0.5
	c0.2,0.2,0.4,0.3,0.6,0.5c-0.7,0.8-1.2,1.7-1.7,2.6c-0.6,1.2-1,2.4-1.4,3.6c1.3-1.1,2.4-2.2,3.4-3.3s1.9-2.2,2.7-3.5
	c0.2-0.1,0.5-0.2,0.7-0.2c0.3,0,0.7,0,1,0.2c0.3,0.1,0.5,0.2,0.6,0.4c-0.4,1.1-0.6,2.2-0.6,3.4c-0.1,0.8,0.1,1.6,0.5,2.3
	c-0.1,0.3-0.3,0.6-0.5,0.8c-0.3,0.4-0.6,0.8-1,1.1c-0.6-0.3-1.2-0.8-1.7-1.3c-0.5-0.6-0.9-1.2-1.1-1.9c-1,0.7-1.9,1.5-2.8,2.3
	c-0.8,0.7-1.4,1.6-2,2.5c-0.6,1-1.1,2-1.4,3.1c-0.4,1.2-0.8,2.6-1.1,4.2c-0.3,0-0.5-0.1-0.8-0.2c-0.3-0.1-0.6-0.3-0.9-0.5
	s-0.5-0.4-0.8-0.6C-186.8-44.1-186.9-44.3-187-44.6z"/>
<path class="st0" d="M-169.8-57.4c-0.2-0.3-0.3-0.6-0.3-0.9c-0.1-0.4-0.1-0.8-0.1-1.2c0.6,0.1,1.2,0.2,1.8,0.2h1.6
	c0.4-0.7,0.7-1.4,1.1-2.1c0.4-0.7,0.8-1.3,1.2-1.9c0.3-0.5,0.7-1,1.1-1.5c0.2-0.3,0.5-0.6,0.8-0.8c0.3,0,0.6,0.1,0.9,0.1
	c0.4,0.1,0.7,0.2,1.1,0.3s0.7,0.3,1,0.4c0.2,0.1,0.5,0.2,0.6,0.4c-0.7,0.9-1.3,1.7-1.8,2.5s-1.1,1.6-1.6,2.6h1.4c0.5,0,1,0,1.5-0.1
	c0.1,0.1,0.2,0.3,0.3,0.4c0.1,0.2,0.1,0.4,0.1,0.5c-1.4,0.5-2.8,0.7-4.2,0.7c-0.6,1.1-1.1,2.3-1.6,3.4s-0.8,2.2-1.1,3.2
	s-0.6,2-0.8,2.9c-0.2,0.8-0.2,1.7-0.3,2.5c0,1,0.4,1.6,1.2,1.7c0.7-0.1,1.4-0.3,2-0.5s1.2-0.6,1.7-1c0.1,0.2,0.2,0.3,0.2,0.5
	c-0.2,0.3-0.4,0.5-0.7,0.7c-0.4,0.3-0.7,0.6-1.1,0.8c-0.4,0.3-0.8,0.5-1.2,0.7c-0.3,0.1-0.6,0.2-0.9,0.3c-0.6,0-1.2-0.1-1.8-0.3
	s-1.1-0.5-1.6-0.9c-0.5-0.3-0.9-0.7-1.2-1.2c-0.3-0.4-0.4-0.8-0.5-1.3c0-0.7,0.1-1.4,0.2-2.1c0.2-0.9,0.4-1.8,0.7-2.8s0.6-2.1,1-3.2
	s0.8-2.2,1.2-3.3L-169.8-57.4z"/>
<path class="st0" d="M-126.5-63.4c0,1.4-0.4,2.8-1.2,3.9c-0.9,1.2-2,2.2-3.3,2.8c0.9,0.6,1.6,1.3,2.1,2.2s0.8,1.9,0.8,2.9
	c0,1.3-0.4,2.7-1.1,3.8c-0.8,1.3-1.9,2.4-3.1,3.3c-1.3,1-2.8,1.8-4.4,2.3c-1.6,0.6-3.3,0.9-5,0.9s-3.3-0.3-4.8-1
	c-1.3-0.7-2.5-1.7-3.2-3c0.2-0.7,0.5-1.6,0.9-2.6s0.8-2.2,1.3-3.3s1-2.3,1.4-3.5s0.9-2.2,1.4-3.1c0.9-2,1.7-3.7,2.4-5
	c0.6-1.1,1.3-2.1,2-3.1c-1.2,0.4-2.4,0.8-3.5,1.4c-0.9,0.4-1.6,0.9-2.3,1.5c-0.2-0.2-0.5-0.4-0.6-0.6c-0.2-0.3-0.4-0.6-0.6-0.9
	c-0.2-0.3-0.4-0.7-0.5-1.1c-0.1-0.3-0.2-0.6-0.2-0.9c0.8-0.5,1.6-0.9,2.4-1.2c1.1-0.4,2.1-0.7,3.2-1c1.2-0.3,2.4-0.5,3.6-0.7
	c1.2-0.2,2.3-0.2,3.5-0.2c2.3-0.1,4.7,0.5,6.7,1.7C-127.3-67-126.4-65.2-126.5-63.4z M-140-54.9c-0.5-0.2-0.9-0.6-1.2-1
	c-0.6,1.2-1.1,2.4-1.5,3.5s-0.9,2.2-1.3,3.2s-0.7,1.9-0.9,2.6c-0.2,0.5-0.3,1.1-0.4,1.7c0.4,0.2,0.8,0.3,1.2,0.4
	c0.6,0.1,1.1,0.2,1.7,0.2c1.6,0,3.1-0.2,4.6-0.7c1.4-0.4,2.7-1.1,3.9-1.9c1-0.7,1.9-1.6,2.6-2.6c0.6-0.9,1-2,1-3.1
	c0.1-1.4-0.7-2.8-2-3.4c-2,0.8-4.1,1.2-6.2,1.1h-0.8C-139.6-54.8-139.8-54.9-140-54.9z M-133.1-67.2c-0.5,0-1.1,0-1.6,0.1
	c-0.6,0.1-1.1,0.2-1.8,0.3c0.1,0.1,0.2,0.2,0.2,0.3c0,0.1,0.1,0.2,0.2,0.3c-0.3,0.4-0.6,0.8-0.8,1.2c-0.3,0.6-0.6,1.2-1,1.9
	s-0.8,1.5-1.2,2.4s-0.8,1.8-1.2,2.7c0.5-0.1,1-0.2,1.5-0.2c0.6-0.1,1.1-0.1,1.7-0.1c0.3,0,0.6,0,0.9,0s0.6,0.1,0.9,0.1
	c1.1-0.2,2.1-0.5,3.1-0.8c0.8-0.3,1.6-0.8,2.4-1.3c0.6-0.4,1.1-1,1.5-1.6c0.4-0.6,0.5-1.2,0.5-1.9c0.1-1-0.5-2-1.3-2.6
	C-130.4-67-131.8-67.3-133.1-67.2z"/>
<path class="st0" d="M-121.6-42.6c-1.3-0.1-2.4-0.8-3.2-1.8c-0.8-1.2-1.3-2.6-1.2-4c0-1,0.2-2,0.4-2.9c0.3-1,0.7-2,1.2-3
	s1.1-1.9,1.8-2.7c0.7-0.8,1.4-1.6,2.3-2.2c1-0.9,2.3-1.4,3.7-1.5c0.9,0.6,1.7,1.5,2.2,2.5h0.3h0.3c1.3,0,1.9,1.1,1.9,3.3
	c0,1.4-0.2,2.9-0.7,4.2s-1.1,2.5-2,3.6s-1.9,2-3.1,2.8C-118.9-43.5-120.2-42.9-121.6-42.6z M-119.8-53.8c-0.4,0.6-0.8,1.2-1.1,1.8
	c-0.3,0.6-0.7,1.3-0.9,1.9c-0.2,0.6-0.4,1.2-0.6,1.9c-0.1,0.5-0.2,1.1-0.2,1.6s0.1,1.1,0.3,1.6c0.2,0.5,0.4,0.8,0.6,0.9
	c1.1-0.2,2.1-0.7,2.9-1.3c0.9-0.7,1.7-1.5,2.3-2.4c0.7-1,1.2-2.1,1.5-3.3c0.4-1.3,0.6-2.6,0.6-3.9c0-0.5,0-1-0.1-1.5
	c-0.1-0.3-0.2-0.6-0.3-0.9c-1,0.3-2,0.8-2.8,1.5C-118.4-55.3-119.2-54.5-119.8-53.8z"/>
<path class="st0" d="M-106-42.6c-1.3-0.1-2.4-0.8-3.2-1.8c-0.8-1.2-1.3-2.6-1.2-4c0-1,0.2-2,0.4-2.9c0.3-1,0.7-2,1.2-3
	s1.1-1.9,1.8-2.7c0.7-0.8,1.4-1.5,2.3-2.2c1-0.9,2.3-1.4,3.7-1.5c1,0.6,1.7,1.5,2.2,2.5h0.3h0.3c1.2,0,1.9,1.1,1.9,3.3
	c0,1.4-0.2,2.9-0.7,4.2s-1.1,2.5-2,3.6s-1.9,2-3.1,2.8C-103.2-43.5-104.6-42.9-106-42.6z M-104.1-53.8c-0.4,0.6-0.8,1.2-1.1,1.8
	c-0.3,0.6-0.7,1.3-0.9,1.9c-0.2,0.6-0.4,1.2-0.6,1.9c-0.1,0.5-0.2,1.1-0.2,1.6s0.1,1.1,0.3,1.6s0.4,0.8,0.6,0.9
	c1.1-0.2,2.1-0.7,2.9-1.3c0.9-0.7,1.7-1.5,2.3-2.4c0.7-1,1.2-2.1,1.5-3.3c0.4-1.3,0.6-2.6,0.6-3.9c0-0.5,0-1-0.1-1.5
	c-0.1-0.3-0.2-0.6-0.3-0.9c-1,0.3-2,0.8-2.8,1.5C-102.8-55.2-103.5-54.5-104.1-53.8z"/>
<path class="st0" d="M-92.8-57.4c-0.2-0.3-0.3-0.6-0.3-0.9c-0.1-0.4-0.1-0.8-0.1-1.2c0.6,0.1,1.2,0.2,1.8,0.2h1.6
	c0.4-0.7,0.7-1.4,1.2-2.1s0.8-1.3,1.2-1.9c0.3-0.5,0.7-1,1.1-1.5c0.2-0.3,0.5-0.6,0.8-0.8c0.3,0,0.6,0.1,0.9,0.1
	c0.4,0.1,0.7,0.2,1.1,0.3s0.7,0.3,1,0.4c0.2,0.1,0.4,0.2,0.6,0.4c-0.7,0.9-1.3,1.7-1.8,2.5s-1.1,1.6-1.6,2.6h1.4c0.5,0,1,0,1.5-0.1
	c0.1,0.1,0.2,0.3,0.3,0.4c0.1,0.2,0.1,0.4,0.1,0.5c-1.3,0.5-2.8,0.7-4.2,0.7c-0.6,1.1-1.1,2.3-1.6,3.4s-0.8,2.2-1.2,3.2
	c-0.3,1-0.6,2-0.7,2.9c-0.2,0.8-0.3,1.7-0.3,2.5c0,1,0.4,1.6,1.2,1.7c0.7-0.1,1.4-0.3,2-0.5s1.2-0.6,1.7-1c0.1,0.2,0.2,0.3,0.2,0.5
	c-0.2,0.3-0.5,0.5-0.7,0.7c-0.4,0.3-0.7,0.6-1.1,0.8s-0.8,0.5-1.2,0.7c-0.3,0.1-0.6,0.2-0.8,0.3c-0.6,0-1.2-0.1-1.8-0.3
	c-0.6-0.2-1.1-0.5-1.6-0.9c-0.5-0.3-0.9-0.7-1.2-1.2c-0.3-0.4-0.4-0.8-0.5-1.3c0-0.7,0.1-1.4,0.2-2.1c0.2-0.9,0.4-1.8,0.7-2.8
	s0.6-2.1,1-3.2s0.8-2.2,1.2-3.3L-92.8-57.4z"/>
<path class="st0" d="M-70.2-58c0,0.5-0.1,0.9-0.2,1.4s-0.3,0.9-0.5,1.3c-0.2,0.4-0.4,0.7-0.6,1c-0.1,0.2-0.3,0.4-0.6,0.4
	c-0.3,0-0.4-0.2-0.5-0.5c0-0.1,0-0.2,0.1-0.3c0.1-0.2,0.1-0.3,0.2-0.5s0.1-0.4,0.2-0.6C-72-56-72-56.1-72-56.3
	c0-0.3-0.1-0.6-0.2-0.8s-0.4-0.3-0.6-0.3c-0.9,0-1.7,0.6-2.2,1.8c-0.6,1.7-0.8,3.4-0.7,5.2c0,0.1,0,0.3,0,0.4h2.5c0,0.1,0,0.2,0,0.3
	c0,0.2,0,0.3-0.1,0.5l-1.3,0.3c-0.2,0.1-0.5,0.1-0.7,0.2c-0.1,0-0.2,0.1-0.3,0.2c0,0.1-0.1,0.2-0.1,0.3c0,0.2,0,0.4,0,0.6
	s0,0.4,0,0.7c0.1,1.7-0.5,3.4-1.6,4.8c-1.2,1.2-2.8,2-4.5,2.1c-0.3,0-0.7-0.1-1-0.3c-0.4-0.2-0.7-0.4-1-0.6s-0.6-0.5-0.8-0.9
	c-0.2-0.3-0.4-0.6-0.5-1c0-0.9,0.2-1.8,0.6-2.6s0.9-1.5,1.5-2.2c0.7-0.7,1.4-1.2,2.3-1.5c0.9-0.4,1.9-0.6,2.9-0.6
	c0-0.6-0.1-1.2-0.2-1.7c-0.1-0.6-0.2-1.1-0.4-1.7s-0.3-1.1-0.4-1.6s-0.2-1-0.2-1.5c0-0.7,0.1-1.3,0.4-1.9c0.2-0.6,0.6-1.2,1-1.7
	s0.9-1,1.5-1.4c0.5-0.4,1.1-0.6,1.8-0.8c0.4,0.1,0.7,0.3,1,0.6c0.4,0.4,0.9,0.7,1.3,1.2c0.4,0.4,0.8,0.8,1.1,1.3
	C-70.6-58.8-70.4-58.4-70.2-58z M-81.9-41.9c0.6-0.2,1.1-0.6,1.6-1c1-0.9,1.8-2,2.2-3.3c0.2-0.6,0.3-1.2,0.3-1.9
	c-0.6,0.1-1.1,0.3-1.6,0.7c-1.1,0.8-2.1,1.7-2.8,2.9c-0.3,0.4-0.5,0.9-0.5,1.4C-82.6-42.6-82.3-42.2-81.9-41.9z"/>
<path class="st0" d="M-68.1-57.4c-0.2-0.3-0.3-0.6-0.3-0.9c-0.1-0.4-0.1-0.8-0.1-1.2c0.6,0.1,1.2,0.2,1.8,0.2h1.6
	c0.3-0.7,0.7-1.4,1.2-2.1s0.8-1.3,1.2-1.9c0.3-0.5,0.7-1,1.1-1.5c0.2-0.3,0.5-0.6,0.8-0.8c0.3,0,0.6,0.1,0.9,0.1
	c0.4,0.1,0.7,0.2,1.1,0.3s0.7,0.3,1,0.4c0.2,0.1,0.5,0.2,0.6,0.4c-0.7,0.9-1.3,1.7-1.8,2.5s-1,1.6-1.6,2.6h1.4c0.5,0,1,0,1.5-0.1
	c0.1,0.1,0.2,0.3,0.3,0.4c0.1,0.2,0.1,0.4,0.1,0.5c-1.3,0.5-2.8,0.7-4.2,0.7c-0.6,1.1-1.1,2.3-1.6,3.4s-0.9,2.2-1.2,3.2
	c-0.3,1-0.6,2-0.7,2.9c-0.2,0.8-0.3,1.7-0.3,2.5c0,1,0.4,1.6,1.2,1.7c0.7-0.1,1.4-0.3,2-0.5s1.2-0.6,1.7-1c0.1,0.2,0.2,0.3,0.2,0.5
	c-0.2,0.3-0.5,0.5-0.7,0.7c-0.4,0.3-0.7,0.6-1.1,0.8c-0.4,0.2-0.8,0.5-1.2,0.7c-0.3,0.1-0.5,0.2-0.8,0.3c-0.6,0-1.2-0.1-1.8-0.3
	s-1.1-0.5-1.6-0.9c-0.5-0.3-0.9-0.7-1.2-1.2c-0.3-0.4-0.4-0.8-0.5-1.3c0-0.7,0.1-1.4,0.2-2.1c0.2-0.9,0.4-1.8,0.7-2.8s0.6-2.1,1-3.2
	s0.8-2.2,1.2-3.3L-68.1-57.4z"/>
<path class="st0" d="M-58.6-44.6c0.1-0.7,0.3-1.6,0.6-2.7s0.6-2.3,1-3.6s0.8-2.5,1.3-3.8s0.9-2.4,1.3-3.4c0.2-0.6,0.5-1.2,0.8-1.7
	c0.2-0.4,0.5-0.7,0.8-1c0.3,0.1,0.7,0.1,1,0.2c0.3,0.1,0.7,0.3,1,0.4c0.3,0.2,0.6,0.3,0.9,0.5c0.2,0.2,0.4,0.3,0.6,0.5
	c-0.7,0.8-1.2,1.7-1.7,2.6c-0.5,1.2-1,2.4-1.4,3.6c1.3-1.1,2.4-2.2,3.4-3.3s1.9-2.2,2.8-3.5c0.2-0.1,0.5-0.2,0.7-0.2
	c0.3,0,0.7,0,1,0.2c0.3,0.1,0.5,0.2,0.6,0.4c-0.4,1.1-0.6,2.2-0.6,3.4c0,0.8,0.1,1.6,0.5,2.3c-0.1,0.3-0.3,0.6-0.5,0.8
	c-0.3,0.4-0.6,0.8-1,1.1c-1.3-0.7-2.3-1.8-2.8-3.2c-1,0.7-1.9,1.5-2.8,2.3c-0.8,0.7-1.4,1.6-2,2.5c-0.6,1-1.1,2-1.4,3.1
	c-0.4,1.2-0.8,2.6-1.1,4.2c-0.3,0-0.5-0.1-0.8-0.2c-0.6-0.3-1.2-0.6-1.7-1.1C-58.3-44.1-58.5-44.3-58.6-44.6z"/>
<path class="st0" d="M-31.2-58.2c0.3,0,0.6,0,0.8,0.1c0.3,0.1,0.6,0.2,0.9,0.3c0.2,0.1,0.5,0.2,0.6,0.4c0.2,0.1,0.3,0.3,0.3,0.4
	c-0.5,1-0.9,2-1.3,3s-0.7,2-1,2.9c-0.3,0.8-0.5,1.7-0.6,2.6c-0.1,0.7-0.2,1.4-0.2,2.1c0,0.5,0.1,1.1,0.2,1.6
	c0.1,0.4,0.4,0.7,0.7,0.9c-0.3,0.2-0.7,0.4-1.1,0.5c-0.4,0.1-0.8,0.2-1.2,0.2c-1.3,0-1.9-0.9-1.9-2.6c0.1-1.9,0.6-3.8,1.3-5.5
	c-0.5,1-1,2-1.6,3c-0.6,0.9-1.2,1.7-1.9,2.5c-0.6,0.7-1.2,1.3-2,1.9c-0.5,0.4-1.1,0.7-1.8,0.8c-0.9,0-1.7-0.5-2.1-1.2
	c-0.6-0.9-0.9-1.9-0.8-3c0-1.4,0.3-2.9,0.8-4.2c0.6-1.5,1.3-2.8,2.2-4.1c0.8-1.2,1.8-2.2,2.9-3.1c0.8-0.8,1.9-1.2,3-1.3
	c0.3,0.1,0.6,0.2,0.8,0.4c0.3,0.2,0.6,0.5,0.8,0.7c0.3,0.3,0.5,0.5,0.7,0.9c0.2,0.2,0.3,0.5,0.3,0.8c-1.1,0.2-2.1,0.6-2.9,1.3
	c-1,0.8-2,1.8-2.7,2.8c-0.8,1.1-1.5,2.3-2,3.5c-0.5,1.1-0.8,2.3-0.8,3.5c0,0.4,0.2,0.7,0.5,0.8c1-0.3,1.8-1,2.4-1.8
	c1.2-1.5,2.3-3.1,3.3-4.8l0.8-1.4c0.3-0.5,0.6-1.1,0.9-1.6l0.9-1.7C-31.8-57-31.5-57.6-31.2-58.2z"/>
<path class="st0" d="M-29.4-32.1c-0.3-0.1-0.5-0.5-0.6-1.1c-0.1-0.4-0.2-0.7-0.2-1.1c0-0.4,0-0.9,0-1.5c0-0.7,0.1-1.3,0.2-2
	c0.2-0.9,0.4-1.8,0.7-2.9s0.6-2.3,1.1-3.5s0.9-2.5,1.4-3.8c0.6-1.6,1.2-3,1.7-4.2s0.9-2.2,1.2-3.1s0.6-1.6,0.8-2.2s0.4-1,0.5-1.5
	c0.1-0.3,0.3-0.7,0.4-1c0.2-0.4,0.4-0.8,0.7-1.2c0.2-0.4,0.5-0.8,0.8-1.2c0.2-0.3,0.4-0.6,0.7-0.8c0.8,0.1,1.6,0.3,2.3,0.6
	c0.5,0.2,1,0.5,1.4,0.9c-0.4,0.4-0.8,0.9-1.1,1.4c-0.5,0.7-0.9,1.4-1.2,2.1c-0.4,0.8-0.8,1.5-1.1,2.4c-0.3,0.7-0.5,1.4-0.7,2.1
	c0.3-0.5,0.6-0.9,0.9-1.3c0.4-0.5,1-1.1,1.7-2c0.7-0.8,1.6-1.5,2.5-2.1c0.6-0.4,1.3-0.7,2-0.7c0.8,0,1.6,0.2,2.2,0.7
	c0.6,0.5,0.9,1.2,0.9,1.9c0,1.7-0.3,3.4-0.9,5c-0.6,1.6-1.4,3.2-2.4,4.5c-0.4,0.5-0.9,1-1.4,1.4c-0.5,0.5-1.1,0.9-1.7,1.2
	c-0.5,0.3-1.1,0.6-1.7,0.9c-0.5,0.2-1,0.3-1.5,0.3c-0.4,0-0.8-0.1-1.1-0.3c-0.3-0.1-0.5-0.4-0.6-0.7c1-0.6,1.9-1.4,2.7-2.3
	c0.9-1,1.7-2.2,2.4-3.3c0.8-1.3,1.4-2.7,1.9-4.1c0.6-1.5,1-2.9,1.3-4.5c-0.9,0.4-1.7,1-2.4,1.5c-0.8,0.6-1.5,1.4-2.2,2.2
	c-0.9,1-1.5,1.9-2,2.5s-0.9,1.2-1.2,1.6c-0.3,0.4-0.5,0.8-0.8,1.2c-0.2,0.4-0.4,0.9-0.6,1.4c-0.3,0.8-0.7,1.8-1.1,3
	s-0.9,2.6-1.4,4.2s-0.9,3.2-1.4,4.9s-0.9,3.5-1.3,5.2c-0.3-0.1-0.5-0.3-0.7-0.6c-0.2-0.2-0.3-0.4-0.4-0.5
	C-29.1-32-29.3-32.1-29.4-32.1z"/>
<g>
	<path class="st1" d="M-273.1,3.8c-3.4,3.2-5.8,6.7-7.4,10.3s-2.3,7.2-2.3,10.6c0,2.2,0.4,3.9,1.3,5.1c0.9,1.3,2,1.9,3.5,1.9
		c2.9,0,6-2.6,9.2-7.7s4.8-10,4.8-14.4c0-1.3-0.2-2.3-0.6-3.1s-1-1.1-1.7-1.1c-1.3,0-2.5,1-3.6,2.9s-1.6,3.7-1.6,5.2
		c0,1.1,0.5,1.7,1.5,1.8c0.4,0,0.6,0.2,0.6,0.6c0,0.6-0.3,1.3-1,1.9s-1.4,0.9-2.1,0.9c-0.9,0-1.6-0.4-2.2-1.2
		c-0.6-0.8-0.9-1.8-0.9-3c0-2.6,1-5.1,2.9-7.5s3.9-3.6,5.9-3.6c1.4,0,2.5,0.6,3.3,1.6c0.8,1.1,1.2,2.6,1.2,4.5c0,3.7-1,7.6-3.1,11.8
		s-4.6,7.6-7.7,10.3s-6,4-8.7,4c-2.1,0-3.8-0.9-5.2-2.7c-1.4-1.8-2.1-4.1-2.1-6.9c0-3,0.6-6,1.8-9.1c1.2-3.1,2.8-5.8,4.7-8.2
		s3.4-3.9,4.6-4.5c1.1-0.6,2.8-0.9,4.9-0.9L-273.1,3.8L-273.1,3.8z"/>
	<path class="st1" d="M-244.8,30.3c-3.7,3.6-6.6,5.5-8.6,5.5c-0.9,0-1.7-0.4-2.3-1.1c-0.6-0.8-0.9-1.7-0.9-2.8
		c0-2.1,1.1-4.9,3.4-8.4c-1.1,0.6-2.3,1-3.6,1.2c-1,1.8-2.5,3.7-4.5,5.8h-0.5v-2c1.2-1.2,2.2-2.5,3.1-3.9c-1.3-0.6-1.9-1.4-1.9-2.5
		s0.4-2.4,1.2-3.7c0.8-1.3,1.8-1.9,3.2-1.9c1.2,0,1.7,0.6,1.7,1.8c0,0.9-0.3,2.3-1,4c2.5-0.3,4.6-2.1,6.5-5.7l2-0.1l-2.1,5.5
		c-0.9,2.4-1.4,4-1.7,4.9c-0.2,0.9-0.4,1.6-0.4,2.3c0,0.6,0.2,1.1,0.4,1.5c0.3,0.4,0.7,0.6,1.2,0.6s1-0.2,1.5-0.5
		c0.5-0.4,1.6-1.4,3.3-3L-244.8,30.3L-244.8,30.3z"/>
	<path class="st1" d="M-228.1,30.3c-1.9,1.9-3.6,3.2-5.2,4.1c-1.6,0.9-3.2,1.3-5,1.3c-1.9,0-3.5-0.6-4.8-1.9
		c-1.2-1.2-1.9-2.9-1.9-4.8c0-3.2,1.2-6.1,3.5-8.8s4.8-4,7.5-4c1.3,0,2.4,0.4,3.2,1.1s1.2,1.7,1.2,2.9c0,0.4-0.1,0.7-0.2,0.9
		c-0.2,0.2-0.5,0.4-0.9,0.6l-2.6,1.2c-0.3,0.1-0.5,0.2-0.7,0.2s-0.3-0.1-0.3-0.5c0-0.1,0-0.5,0.1-1.2s0.1-1.1,0.1-1.2
		c0-0.6-0.1-1.2-0.4-1.6s-0.6-0.6-1.1-0.6c-1.1,0-2.1,0.8-3,2.4s-1.3,3.4-1.3,5.5c0,1.8,0.4,3.2,1.3,4.2c0.8,1,2,1.6,3.4,1.6
		c1.2,0,2.3-0.3,3.4-1s2.3-1.8,3.6-3.2L-228.1,30.3L-228.1,30.3z"/>
	<path class="st1" d="M-204.2,30.3c-2.4,2.3-4.1,3.7-5.1,4.4s-2,1-2.9,1c-2.3,0-3.4-2.1-3.3-6.2c-1.5,2.1-2.9,3.7-4.1,4.7
		c-1.3,1-2.6,1.5-3.9,1.5s-2.4-0.6-3.3-1.8c-0.9-1.2-1.4-2.7-1.4-4.5c0-2.2,0.6-4.4,1.8-6.4s2.8-3.6,4.7-4.9s3.6-1.9,5.1-1.9
		c1.9,0,3.2,0.9,3.9,2.6l4.6-2.5h1.2l-2,6.5c-1,3.3-1.5,5.5-1.5,6.8s0.4,1.9,1.4,1.9c0.6,0,1.2-0.3,1.9-0.9s1.7-1.6,2.9-2.8
		C-204.2,27.7-204.2,30.3-204.2,30.3z M-220.6,31.5c1.5,0,2.9-1.3,4.2-3.8s2-4.9,2-7c0-0.8-0.2-1.5-0.6-1.9
		c-0.4-0.5-0.9-0.7-1.5-0.7c-1.5,0-2.9,1.3-4.2,3.8s-2,4.9-2,7c0,0.8,0.2,1.5,0.6,2C-221.6,31.3-221.1,31.5-220.6,31.5z"/>
	<path class="st1" d="M-167.1,30.3c-3.5,3.6-7.8,5.5-12.7,5.5c-3.6,0-6.5-1.1-8.8-3.4c-2.3-2.2-3.4-5.1-3.4-8.6s0.8-6.8,2.5-10
		s3.8-5.7,6.5-7.6s5.3-2.8,7.8-2.8c2.2,0,3.9,0.6,5.3,1.9c1.4,1.3,2,3,2,5c0,2.7-0.8,5-2.5,7c-1.6,2-3.6,3-5.8,3
		c-1.2,0-2.1-0.3-2.8-0.9s-1.1-1.4-1.1-2.3c0-0.8,0.3-1.5,1-2.2c0.5,0.9,1.1,1.3,2,1.3c1.2,0,2.3-0.7,3.3-2.2s1.5-3.1,1.5-4.9
		c0-1.2-0.3-2.2-0.9-2.9c-0.6-0.7-1.3-1.1-2.3-1.1c-1.4,0-2.9,0.9-4.4,2.6c-1.6,1.7-2.9,3.9-3.9,6.6c-1.1,2.7-1.6,5.3-1.6,7.7
		c0,3.1,0.9,5.6,2.6,7.6s4,3,6.7,3c1.7,0,3.3-0.4,4.7-1.2s2.8-2,4.3-3.8L-167.1,30.3L-167.1,30.3z"/>
	<path class="st1" d="M-152.4,30.3c-2,1.9-3.8,3.2-5.3,4.1c-1.5,0.9-3,1.3-4.4,1.3c-1.6,0-2.9-0.6-3.8-1.9c-1-1.2-1.5-2.9-1.5-5
		c0-3.1,0.7-6.9,2-11.2s3-8.4,4.9-12.1l5.7-2.1c0.2-0.1,0.3-0.1,0.4-0.1c0.4,0,0.8,0.3,1.1,1s0.4,1.5,0.4,2.6c0,3-0.7,6-2.1,8.8
		s-3.6,5.9-6.6,9.1c-0.1,1.5-0.2,2.6-0.2,3.2c0,1.3,0.2,2.3,0.7,3.1c0.5,0.8,1.1,1.1,1.9,1.1c0.8,0,1.7-0.3,2.6-0.9
		c0.9-0.6,2.3-1.8,4.1-3.6L-152.4,30.3L-152.4,30.3z M-160.9,21.6c1.9-2.1,3.4-4.4,4.6-7.1s1.8-4.8,1.8-6.7c0-0.5-0.1-1-0.2-1.3
		c-0.2-0.3-0.4-0.5-0.6-0.5c-0.6,0-1.4,1.4-2.4,4.1C-158.9,12.8-159.9,16.6-160.9,21.6z"/>
	<path class="st1" d="M-132.4,30.3c-0.8,0.7-1.5,1.1-2.2,1.4s-1.3,0.4-1.7,0.4c-1.1,0-2.1-0.4-3.2-1.2c-2.1,3.2-4.6,4.9-7.4,4.9
		c-1.7,0-3.1-0.6-4.2-1.9c-1.1-1.3-1.6-3-1.6-5.1c0-3.4,1.2-6.3,3.6-8.7s5.3-3.6,8.6-3.6c1.3,0,2.2,0.1,2.8,0.4s0.9,0.6,1.1,1
		s0.2,0.8,0.2,1.4c0,2.8-0.8,6.2-2.3,10.2c0.8,0.7,1.6,1,2.4,1c1,0,2.3-0.9,3.8-2.6L-132.4,30.3L-132.4,30.3z M-139.8,17.8
		c-0.2-0.1-0.5-0.1-1-0.1c-1.9,0-3.4,1-4.5,3s-1.6,4.4-1.6,7.1c0,1.5,0.2,2.7,0.7,3.5s1.1,1.2,2,1.2c1.1,0,2.2-1,3.4-2.9
		c-1.4-1.8-2.1-3.6-2.1-5.7C-142.9,21.6-141.9,19.5-139.8,17.8z"/>
	<path class="st1" d="M-108.7,30.3c-2,1.9-3.6,3.2-4.9,4.1c-1.3,0.9-2.5,1.3-3.6,1.3c-1.2,0-2.1-0.5-2.7-1.4s-0.9-2.2-0.9-3.8
		c-1.6,1.8-3.1,3.1-4.4,4s-2.6,1.3-3.8,1.3c-1.1,0-2-0.5-2.7-1.4s-1-2.2-1-3.8c0-3.1,1-7.4,3.1-13.1l5.9-1.2
		c-2.4,7.1-3.7,11.7-3.7,13.7c0,1.4,0.5,2.1,1.6,2.1c0.8,0,1.7-0.6,2.9-1.9s1.9-2.4,2.1-3.3l2.9-9.5l6.1-1.2
		c-1.4,4.5-2.4,7.6-2.9,9.4s-0.8,3.1-0.8,3.8c0,1.4,0.5,2.1,1.4,2.1c0.8,0,1.9-0.7,3.4-2.1l1.9-1.8L-108.7,30.3L-108.7,30.3z"/>
	<path class="st1" d="M-84.8,30.3c-2.1,2.1-3.8,3.6-4.9,4.3s-2.1,1.1-3,1.1c-1.1,0-1.9-0.5-2.5-1.5s-0.9-2.5-0.9-4.5
		c-1.2,2-2.5,3.5-4,4.5c-1.4,1-2.7,1.5-3.9,1.5c-1.3,0-2.4-0.6-3.3-1.8c-1-1.2-1.4-2.6-1.4-4.2c0-3.3,1.2-6.4,3.6-9.2s5-4.2,7.8-4.2
		c0.8,0,1.4,0.1,1.8,0.3c0.4,0.2,0.9,0.6,1.4,1.1L-91,4.4c2.6-0.6,4.4-0.9,5.3-0.9c0.3,0,0.4,0.1,0.4,0.4c0,0.2-0.4,1.7-1.1,4.6
		c-3,11.6-4.4,18.7-4.4,21.1c0,0.6,0.1,1,0.4,1.4s0.6,0.5,0.9,0.5c0.9,0,2.5-1.2,4.7-3.7L-84.8,30.3L-84.8,30.3z M-100.9,31.4
		c1.5,0,2.8-1.2,4.1-3.7s1.9-4.8,1.9-6.9c0-0.9-0.2-1.6-0.6-2.1s-0.9-0.8-1.6-0.8c-1.4,0-2.7,1.3-4,3.9s-1.9,4.9-1.9,7
		c0,0.8,0.2,1.5,0.6,1.9C-102.2,31.2-101.7,31.4-100.9,31.4z"/>
</g>
<g>
	<path class="st1" d="M-300.4,71.1c0-7.4,3.6-11.7,8.8-11.7s8.8,4.3,8.8,11.7c0,7.5-3.6,11.9-8.8,11.9S-300.4,78.6-300.4,71.1z
		 M-285.9,71.1c0-5.7-2.3-9.1-5.7-9.1c-3.4,0-5.7,3.4-5.7,9.1c0,5.8,2.3,9.4,5.7,9.4C-288.2,80.4-285.9,76.9-285.9,71.1z"/>
	<path class="st1" d="M-276.2,65.7h2.4l0.3,4h0.1c1.8-2.7,4.4-4.4,7.5-4.4c1.3,0,2.3,0.2,3.3,0.7l-0.7,2.5c-1.2-0.4-1.8-0.6-3.1-0.6
		c-2.5,0-4.9,1.3-7,4.8v9.9h-2.9V65.7H-276.2z"/>
	<path class="st1" d="M-257.6,74.2c0-5.7,4.3-8.9,9.4-8.9c2.7,0,4.8,1.1,6.2,2.5l-1.4,1.8c-1.4-1.2-2.9-1.9-4.6-1.9
		c-3.9,0-6.6,2.6-6.6,6.5s2.6,6.4,6.5,6.4c2.1,0,3.8-0.9,5.2-2.1l1.3,1.9c-1.9,1.7-4.2,2.6-6.7,2.6C-253.6,83-257.6,79.8-257.6,74.2
		z"/>
	<path class="st1" d="M-236.8,78.2c0-3.8,3.5-5.6,12.3-6.3c-0.1-2.3-1.2-4.2-4.5-4.2c-2.2,0-4.3,1-5.9,2l-1.1-1.9
		c1.7-1.1,4.6-2.4,7.5-2.4c4.6,0,6.9,2.7,6.9,7v10.4h-2.4l-0.2-2.3h-0.1c-1.8,1.5-4.3,2.7-6.6,2.7C-234.1,83-236.8,81.2-236.8,78.2z
		 M-224.5,78.2v-4.4c-7.2,0.6-9.4,2-9.4,4.2c0,1.9,1.7,2.7,3.7,2.7C-228.3,80.7-226.4,79.8-224.5,78.2z"/>
	<path class="st1" d="M-195.6,71.2c0-7.3,4.3-11.8,10.2-11.8c2.7,0,4.9,1.3,6.3,2.8l-1.7,1.8c-1.2-1.3-2.7-2.1-4.6-2.1
		c-4.3,0-7.2,3.5-7.2,9.2c0,5.7,2.8,9.3,7.2,9.3c2.1,0,3.7-0.9,5.1-2.5l1.7,1.8c-1.8,2.1-4,3.3-7.1,3.3
		C-191.3,83-195.6,78.6-195.6,71.2z"/>
	<path class="st1" d="M-168.4,76.9V60.2h-6v-2.3h8.9v19.3c0,2.4,1.3,3.5,3.3,3.5c1,0,2-0.2,3.2-0.8l0.7,2.2c-1.6,0.7-2.7,1-4.5,1
		C-166.4,83-168.4,80.9-168.4,76.9z"/>
	<path class="st1" d="M-154,74.2c0-5.7,3.9-8.9,8.3-8.9s8.3,3.2,8.3,8.9c0,5.6-3.9,8.8-8.3,8.8S-154,79.8-154,74.2z M-140.3,74.2
		c0-3.9-2.2-6.5-5.4-6.5s-5.4,2.6-5.4,6.5s2.2,6.4,5.4,6.4S-140.3,78-140.3,74.2z"/>
	<path class="st1" d="M-132.6,76.2V65.7h2.9v10.1c0,3.2,1.1,4.7,3.9,4.7c1.9,0,3.4-0.9,5.2-3.1V65.7h2.9v16.9h-2.4l-0.2-3h-0.1
		c-1.7,2-3.7,3.4-6.3,3.4C-130.8,83-132.6,80.6-132.6,76.2z"/>
	<path class="st1" d="M-112.3,74.2c0-5.5,3.6-8.9,7.6-8.9c2,0,3.6,0.8,5.1,2.2h0.1l-0.1-3.1v-6.5h2.9v24.7h-2.4l-0.2-2.2h-0.1
		c-1.4,1.4-3.4,2.6-5.5,2.6C-109.4,83-112.3,79.8-112.3,74.2z M-99.7,78.1v-8.4c-1.5-1.4-3-1.9-4.4-1.9c-2.9,0-5.3,2.6-5.3,6.4
		c0,4,1.9,6.4,5,6.4C-102.7,80.6-101.2,79.7-99.7,78.1z"/>
</g>
<g>
	<path class="st1" d="M-305.6,127.1c8.4,0,12.5,5,12.5,14.9s-4.3,14.9-12.8,14.9s-12.8-5.1-12.8-15.2
		C-318.6,131.9-314.3,127.1-305.6,127.1z M-305.8,129.4c-1.6,0-2.6,0.9-3.2,2.6s-0.8,5.1-0.8,10s0.3,8.2,0.8,10s1.6,2.6,3.2,2.6
		s2.6-0.9,3.2-2.6c0.6-1.7,0.8-5.1,0.8-10s-0.3-8.2-0.8-10C-303.2,130.2-304.3,129.4-305.8,129.4z"/>
	<path class="st1" d="M-274.5,142.8h-5.3c0.2-0.8,0.3-1.4,0.5-1.8c0.2-0.6,0.3-1.1,0.3-1.6c0-0.9-0.3-1.3-1-1.3
		c-0.5,0-1,0.6-1.4,1.8s-0.7,2.4-0.7,3.8v12.7h-7.7v-21.2h1.5c1.8,0,3.8-0.2,6.2-0.6v3.5c1.2-2.3,2.8-3.5,4.6-3.5
		c2.5,0,3.7,1.4,3.7,4.1c0,0.7-0.1,1.5-0.4,2.5C-274.2,141.5-274.3,142-274.5,142.8z"/>
	<path class="st1" d="M-256.2,146.8l3.2,1v0.9c0,5.4-2.9,8.1-8.8,8.1c-7,0-10.5-3.5-10.5-10.6c0-3.5,1-6.4,3.1-8.5
		c2-2.1,4.8-3.2,8.2-3.2c4.9,0,7.4,2.2,7.4,6.7l-3.6,1.7v-2c0-3-1-4.5-3.1-4.5c-2.7,0-4,3-4,8.9c0,3.7,0.3,6.2,0.9,7.6
		c0.6,1.4,1.6,2.1,3.2,2.1c2.8,0,4.3-1.8,4.3-5.5C-256,148.8-256.1,148-256.2,146.8z"/>
	<path class="st1" d="M-228.9,155.5c-1.9,0.7-3.7,1.1-5.5,1.1c-2.6,0-4.3-0.8-4.9-2.5c-1.3,1.7-3.1,2.6-5.5,2.6
		c-4.5,0-6.7-2.1-6.7-6.2c0-3.2,2-5.4,6.1-6.6c3.8-1.2,5.6-2.6,5.6-4.3c0-2.2-1.1-3.3-3.2-3.3c-2.5,0-3.7,1.1-3.7,3.2
		c0,0.7,0.2,1.5,0.6,2.6l-3.8-0.7c-0.1-0.7-0.1-1.3-0.1-1.9c0-3.4,3.1-5,9.2-5c5.8,0,8.8,1.6,8.8,4.7v12.9c0,1.3,0.4,2,1.3,2
		c0.3,0,0.7-0.1,1.2-0.4L-228.9,155.5z M-239.8,143.5c-0.5,0.5-1,1-1.7,1.4c-1.6,0.9-2.4,2.5-2.4,4.7c0,2.8,0.5,4.2,1.6,4.2
		c1.6,0,2.4-1.4,2.4-4.2L-239.8,143.5L-239.8,143.5z"/>
	<path class="st1" d="M-195.2,144.8l3.6,0.9c0.1,0.7,0.1,1.4,0.1,1.9c0,2.8-1,5-3,6.7s-4.7,2.5-8.1,2.5c-8.5,0-12.8-4.8-12.8-14.4
		c0-4.5,1.2-8.2,3.7-11.1c2.5-2.8,5.7-4.2,9.7-4.2c6.2,0,9.3,3,9.3,9l-3.6,1.6c0-0.8,0.1-1.5,0.1-2c0-4.2-1.7-6.4-5.1-6.4
		c-3.6,0-5.4,4.5-5.4,13.5c0,7.7,2,11.6,6,11.6c1.7,0,3-0.7,4.1-2s1.7-3,1.7-4.9C-194.9,146.9-195,146-195.2,144.8z"/>
	<path class="st1" d="M-181.1,127.2v29.1h-7.7v-28.7C-186.7,127.6-184.1,127.4-181.1,127.2z"/>
	<path class="st1" d="M-167.4,134.5c7,0,10.5,3.7,10.5,11.1s-3.5,11.1-10.5,11.1s-10.5-3.7-10.5-11.1S-174.4,134.5-167.4,134.5z
		 M-167.4,136.4c-1.7,0-2.5,3.1-2.5,9.2c0,6.2,0.8,9.2,2.5,9.2s2.6-3.1,2.6-9.2C-164.8,139.5-165.7,136.4-167.4,136.4z"/>
	<path class="st1" d="M-133.4,134.5v21.8h-7.7v-3.4c-1.8,2.5-4,3.8-6.8,3.8c-3.7,0-5.6-1.8-5.6-5.5v-16.1c2.6-0.1,5.1-0.3,7.7-0.5
		V151c0,1.4,0.4,2.1,1.3,2.1c2.3,0,3.5-2.5,3.5-7.4V135C-138.6,135-136,134.8-133.4,134.5z"/>
	<path class="st1" d="M-110.1,127.1v29.2h-7.7v-1.8c-1.3,1.5-3,2.3-5.2,2.3c-4.8,0-7.2-3.7-7.2-11c0-7.5,2.5-11.3,7.6-11.3
		c2,0,3.6,0.9,4.8,2.6v-9.6C-115.5,127.6-112.9,127.4-110.1,127.1z M-120.1,137.6c-1.3,0-1.9,1.2-1.9,3.6l-0.1,4.5l0.1,4.1
		c0,2.6,0.7,3.9,2.2,3.9c1.4,0,2.1-1.3,2.1-3.9l0.1-5.2l-0.2-3.5C-118,138.8-118.8,137.6-120.1,137.6z"/>
</g>
<text transform="matrix(1 0 0 1 12.368 -26.6052)" class="st1" style="font-family:'BerlinSansFBDemi-Bold'; font-size:41.7109px;">Orca Cloud</text>
<g>
	<path class="st2" d="M1.7,21.1C1.7,11.7,7,6.2,14.6,6.2s12.9,5.5,12.9,14.9s-5.3,15.1-12.9,15.1S1.7,30.5,1.7,21.1z M21.6,21.1
		c0-6.2-2.7-9.9-7-9.9s-7,3.7-7,9.9s2.7,10.1,7,10.1S21.6,27.3,21.6,21.1z"/>
	<path class="st2" d="M32.7,13.8h4.7l0.4,3.9H38c1.6-2.9,3.9-4.4,6.2-4.4c1.2,0,1.9,0.2,2.6,0.5l-1,5c-0.7-0.2-1.4-0.4-2.3-0.4
		c-1.7,0-3.8,1.1-5,4.3v13.1h-5.7L32.7,13.8L32.7,13.8z"/>
	<path class="st2" d="M47.9,24.8c0-7.3,5.2-11.5,11.2-11.5c2.7,0,4.8,1.1,6.4,2.4l-2.7,3.7c-1.1-0.9-2.1-1.4-3.4-1.4
		c-3.3,0-5.6,2.7-5.6,6.8s2.3,6.8,5.4,6.8c1.6,0,3-0.7,4.3-1.8l2.3,3.8c-2.1,1.8-4.7,2.7-7.2,2.7C52.5,36.2,47.9,32,47.9,24.8z"/>
	<path class="st2" d="M68.3,29.8c0-4.7,3.8-7.2,12.6-8.1c-0.1-2.1-1-3.8-3.7-3.8c-2,0-4,0.9-6,2.1l-2.1-3.8c2.6-1.6,5.7-2.9,9.1-2.9
		c5.5,0,8.4,3.3,8.4,9.7v12.8H82l-0.4-2.3h-0.1c-1.9,1.6-4.1,2.9-6.6,2.9C70.9,36.2,68.3,33.5,68.3,29.8z M80.9,29.6v-4.4
		c-5.3,0.7-7.1,2.1-7.1,4.1c0,1.7,1.2,2.5,2.9,2.5C78.3,31.8,79.5,31,80.9,29.6z"/>
	<path class="st2" d="M100.4,21.4c0-9.5,6.1-15.1,13.4-15.1c3.7,0,6.6,1.8,8.5,3.7l-3,3.7c-1.4-1.4-3.1-2.4-5.3-2.4
		c-4.4,0-7.7,3.8-7.7,10c0,6.3,3,10.1,7.5,10.1c2.5,0,4.4-1.2,6-2.9l3,3.6c-2.4,2.8-5.5,4.3-9.2,4.3C106.4,36.2,100.4,31,100.4,21.4
		z"/>
	<path class="st2" d="M127.1,29.6v-25h5.7v25.3c0,1.3,0.6,1.7,1.2,1.7c0.2,0,0.4,0,0.8-0.1l0.7,4.3c-0.7,0.3-1.6,0.5-3,0.5
		C128.5,36.2,127.1,33.6,127.1,29.6z"/>
	<path class="st2" d="M138,24.8c0-7.3,5-11.5,10.5-11.5S159,17.5,159,24.8c0,7.2-5,11.4-10.5,11.4S138,32,138,24.8z M153.2,24.8
		c0-4.1-1.7-6.8-4.7-6.8s-4.7,2.7-4.7,6.8s1.7,6.8,4.7,6.8S153.2,28.9,153.2,24.8z"/>
	<path class="st2" d="M163.6,27.5V13.8h5.7v12.9c0,3.4,0.9,4.6,3,4.6c1.8,0,3-0.8,4.5-2.7V13.8h5.7v21.9h-4.7l-0.4-3.1h-0.2
		c-1.9,2.2-4,3.7-7,3.7C165.6,36.2,163.6,33,163.6,27.5z"/>
	<path class="st2" d="M187.5,24.8c0-7.2,4.5-11.5,9.2-11.5c2.5,0,4,0.9,5.5,2.4l-0.2-3.4V4.5h5.7v31.2H203l-0.5-2.3h-0.1
		c-1.6,1.6-3.8,2.8-6.1,2.8C191,36.2,187.5,31.9,187.5,24.8z M202,29.3v-9.6c-1.3-1.2-2.7-1.6-4.1-1.6c-2.5,0-4.5,2.3-4.5,6.7
		c0,4.5,1.6,6.8,4.5,6.8C199.4,31.5,200.7,30.9,202,29.3z"/>
</g>
<text transform="matrix(1 0 0 1 -451 -321)" style="font-family:'MyriadPro-Regular'; font-size:12px;">Lorem ipsum</text>
</svg>
